# xmcd
#
# Track frame offsets: 
#        150
#        21239
#        49132
#        67969
#        90251
#        111953
#        127836
#        152214
#        172304
#        190238
#        213615
#
# Disc length: 3071 seconds
#
# Revision: 2
# Processed by: cddbd v1.5.2PL0 Copyright (c) Steve Scherf et al.
# Submitted via: ExactAudioCopyFreeDBPlugin 1.0
#
DISCID=970bfd0b
DTITLE=The Slide Brothers - Robert Randolph Presents The Slide Brother
DTITLE=s
DYEAR=2013
DGENRE=Blues
TTITLE0=Don't Keep Me Wonderin'
TTITLE1=My Sweet Lord
TTITLE2=Sunday School Blues
TTITLE3=Wade in the Water
TTITLE4=Praise You
TTITLE5=It Hurts Me Too
TTITLE6=Catch That Train
TTITLE7=Motherless Children
TTITLE8=Help Me Make It Through
TTITLE9=The Sky is Crying
TTITLE10=No Cheap Seats in Heaven
EXTD=
EXTT0=
EXTT1=
EXTT2=
EXTT3=
EXTT4=
EXTT5=
EXTT6=
EXTT7=
EXTT8=
EXTT9=
EXTT10=
PLAYORDER=
